<svg width="53" height="53" viewBox="0 0 53 53" fill="none" xmlns="http://www.w3.org/2000/svg">
<path d="M18.7488 52.8982C23.558 52.8982 27.4377 49.0184 27.4377 44.2092V35.5203H18.7488C13.9395 35.5203 10.0598 39.4 10.0598 44.2092C10.0598 49.0184 13.9395 52.8982 18.7488 52.8982Z" fill="#0ACF83"/>
<path d="M10.0598 26.8312C10.0598 22.0219 13.9395 18.1422 18.7488 18.1422H27.4377V35.5201H18.7488C13.9395 35.5201 10.0598 31.6404 10.0598 26.8312Z" fill="#A259FF"/>
<path d="M10.0598 9.45335C10.0598 4.64412 13.9395 0.764404 18.7488 0.764404H27.4377V18.1423H18.7488C13.9395 18.1423 10.0598 14.2626 10.0598 9.45335Z" fill="#F24E1E"/>
<path d="M27.4375 0.764404H36.1264C40.9357 0.764404 44.8154 4.64412 44.8154 9.45335C44.8154 14.2626 40.9357 18.1423 36.1264 18.1423H27.4375V0.764404Z" fill="#FF7262"/>
<path d="M44.8154 26.8312C44.8154 31.6404 40.9357 35.5201 36.1264 35.5201C31.3172 35.5201 27.4375 31.6404 27.4375 26.8312C27.4375 22.0219 31.3172 18.1422 36.1264 18.1422C40.9357 18.1422 44.8154 22.0219 44.8154 26.8312Z" fill="#1ABCFE"/>
</svg>
