<svg width="52" height="53" viewBox="0 0 52 53" fill="none" xmlns="http://www.w3.org/2000/svg">
<path d="M30.8512 21.2089C27.7575 21.2089 26.2202 22.8239 26.2202 25.1493C26.2202 26.6462 26.9687 27.7066 27.9596 28.192C27.4742 28.637 27.0701 29.0261 26.706 29.4101C26.3414 29.7948 26.1192 30.201 26.1192 30.6463C26.1192 31.1927 26.3414 31.6991 27.0091 31.9812C26.3014 32.6496 25.8965 33.1346 25.8965 34.0451C25.8965 35.6427 27.292 36.5734 30.9526 36.5734C34.4719 36.5734 36.514 35.2596 36.514 32.9333C36.514 30.2446 34.4517 30.1432 30.9526 29.9201L28.9707 29.7989L29.6384 28.7271C30.0017 28.8281 30.5889 28.9089 31.2367 28.9089C33.7844 28.9089 35.544 27.5947 35.544 25.3493C35.544 24.419 35.0845 23.772 34.7208 23.3064L36.5075 23.165V21.3754H32.7122C32.2475 21.3754 31.7209 21.2089 30.8512 21.2089ZM31.7613 32.7313C32.7329 32.7919 33.5015 32.8323 33.5015 33.4805C33.5015 34.5713 31.9032 34.6534 30.7308 34.6534C29.3147 34.6534 28.2833 34.4101 28.2833 33.6014C28.2833 33.1964 28.546 32.8529 28.8095 32.5296L31.7613 32.7313ZM30.9736 26.7856C29.6384 26.7856 29.0924 26.0974 29.0924 25.1068C29.0924 23.7922 29.9213 23.2458 31.0339 23.2458C32.1865 23.2458 32.8743 23.873 32.8743 25.066C32.8743 26.1184 32.1056 26.7856 30.9736 26.7856ZM40.2146 19.6316C41.3874 19.6316 42.0551 18.9639 42.0551 17.8105C42.0551 16.6588 41.3874 16.0311 40.2146 16.0311C39.0616 16.0311 38.394 16.6588 38.394 17.8105C38.394 18.9635 39.0616 19.6316 40.2146 19.6316ZM41.7613 29.6421V21.3754H37.8278L37.6055 22.95L38.6834 23.3032C38.8862 23.3634 38.9323 23.4741 38.9323 23.6964V29.6421C38.9323 29.946 38.7618 30.0066 38.4785 30.0474L37.3158 30.1889V31.883H43.3778V30.1889L42.2155 30.0474C41.9112 30.0066 41.7613 29.9666 41.7613 29.6421ZM50.8212 29.2218C50.3354 29.4036 49.7575 29.5447 49.1905 29.5447C48.099 29.5447 47.8233 29.0799 47.8233 27.8865V22.992H50.6523V20.9713H47.9696C47.8076 20.9713 47.8233 20.9701 47.8233 20.8286V18.1423H45.8863C45.664 20.163 44.5902 21.0505 42.9737 21.2534V22.992H44.5914C44.7535 22.992 44.5902 23.1346 44.5902 23.2555V28.5541C44.5902 30.8403 45.582 31.8107 47.9882 31.8107C49.1416 31.8107 50.4563 31.4263 51.3264 31.002L50.8212 29.2218ZM12.1534 16.4474C12.0267 16.3207 11.8764 16.2203 11.7109 16.1517C11.5454 16.0832 11.368 16.0479 11.1889 16.0479C11.0098 16.0479 10.8324 16.0832 10.667 16.1517C10.5015 16.2203 10.3511 16.3207 10.2245 16.4474L8.3044 18.3674L10.7401 20.8032C11.0274 20.7054 11.3363 20.6902 11.6317 20.7595C11.9271 20.8287 12.1972 20.9796 12.411 21.1949C12.6248 21.4102 12.7739 21.6812 12.8412 21.977C12.9084 22.2729 12.8912 22.5817 12.7915 22.8683L15.1392 25.2159C15.4861 25.0953 15.8637 25.096 16.2102 25.218C16.5567 25.34 16.8515 25.576 17.0463 25.8875C17.2411 26.1989 17.3244 26.5672 17.2826 26.9321C17.2407 27.2971 17.0762 27.637 16.8159 27.8962C16.6653 28.047 16.4863 28.1667 16.2894 28.2483C16.0925 28.33 15.8814 28.372 15.6682 28.372C15.455 28.372 15.2439 28.33 15.0469 28.2483C14.85 28.1667 14.6711 28.047 14.5204 27.8962C14.0435 27.4189 13.8641 26.7185 14.1062 26.1309L11.8551 23.9417V29.7035C11.8551 29.7799 12.2168 29.8817 12.3458 30.0102C12.9795 30.6439 13.0102 31.6712 12.3761 32.3061C12.2268 32.4567 12.0493 32.5762 11.8536 32.6578C11.6579 32.7393 11.448 32.7813 11.236 32.7813C11.024 32.7813 10.8141 32.7393 10.6184 32.6578C10.4228 32.5762 10.2452 32.4567 10.0959 32.3061C9.46225 31.6712 9.46993 30.6443 10.104 30.0102C10.2608 29.8538 10.2386 29.7354 10.6427 29.6562V23.8411C10.2386 23.7619 10.2681 23.6443 10.1117 23.487C9.88401 23.2594 9.72919 22.9691 9.66694 22.6532C9.60469 22.3372 9.63782 22.0099 9.76212 21.7129L7.36074 19.3111L1.02023 25.6516C0.893466 25.7782 0.792902 25.9286 0.72429 26.0941C0.655677 26.2597 0.620361 26.4371 0.620361 26.6163C0.620361 26.7955 0.655677 26.9729 0.72429 27.1384C0.792902 27.3039 0.893466 27.4543 1.02023 27.581L10.2677 36.828C10.5236 37.0836 10.8705 37.2272 11.2322 37.2272C11.5938 37.2272 11.9407 37.0836 12.1966 36.828L21.4009 27.6234C21.6565 27.3674 21.8001 27.0205 21.8001 26.6587C21.8001 26.297 21.6565 25.95 21.4009 25.694L12.1534 16.4474Z" fill="#F34F29"/>
</svg>
