<svg width="53" height="53" viewBox="0 0 53 53" fill="none" xmlns="http://www.w3.org/2000/svg">
<path fill-rule="evenodd" clip-rule="evenodd" d="M26.7747 2.82678C13.2979 2.82678 2.36963 13.7526 2.36963 27.2318C2.36963 38.015 9.36241 47.1626 19.0593 50.3901C20.2786 50.6164 20.7263 49.8606 20.7263 49.216C20.7263 48.6341 20.7037 46.7116 20.6932 44.6723C13.9037 46.1487 12.471 41.7929 12.471 41.7929C11.3609 38.972 9.76129 38.2219 9.76129 38.2219C7.54662 36.7072 9.9282 36.7387 9.9282 36.7387C12.3785 36.9105 13.6693 39.2537 13.6693 39.2537C15.846 42.9839 19.3785 41.9056 20.7712 41.2824C20.9902 39.7051 21.6227 38.6281 22.3207 38.0186C16.9 37.4023 11.2012 35.3093 11.2012 25.958C11.2012 23.2935 12.155 21.1164 13.7162 19.4069C13.4624 18.7926 12.627 16.3104 13.9522 12.9488C13.9522 12.9488 16.0012 12.2929 20.6649 15.4504C22.612 14.9093 24.7002 14.6373 26.7747 14.628C28.8479 14.6373 30.9373 14.9085 32.888 15.4496C37.5461 12.2921 39.5927 12.948 39.5927 12.948C40.9211 16.3092 40.0857 18.7918 39.8323 19.4061C41.3971 21.1156 42.344 23.2927 42.344 25.9572C42.344 35.3307 36.6348 37.3942 31.2004 37.9988C32.0761 38.7562 32.8561 40.2418 32.8561 42.5183C32.8561 45.7837 32.8278 48.4118 32.8278 49.2156C32.8278 49.8651 33.2675 50.6261 34.5042 50.3864C44.1954 47.1558 51.1801 38.0109 51.1801 27.2318C51.1797 13.7534 40.2526 2.82719 26.7747 2.82719V2.82678Z" fill="#181616"/>
<path d="M11.6128 37.8667C11.559 37.988 11.3683 38.0243 11.1945 37.9415C11.0167 37.8623 10.9177 37.697 10.975 37.5754C11.0276 37.4501 11.2187 37.4157 11.3954 37.4994C11.5732 37.579 11.6742 37.7459 11.6124 37.8671L11.6128 37.8667ZM12.6013 38.9696C12.4853 39.0775 12.2578 39.0274 12.1034 38.8565C11.9434 38.6867 11.9135 38.4592 12.0319 38.3497C12.1523 38.2422 12.373 38.2931 12.533 38.4628C12.6922 38.635 12.7237 38.8605 12.6017 38.97L12.6013 38.9696ZM13.5639 40.3748C13.4144 40.4791 13.1695 40.3817 13.0184 40.1647C12.8688 39.9472 12.8688 39.6866 13.0224 39.5827C13.1731 39.4784 13.4144 39.5726 13.568 39.7876C13.7167 40.0079 13.7167 40.2685 13.5639 40.3744V40.3748ZM14.8818 41.7331C14.7485 41.8806 14.4632 41.841 14.2546 41.6402C14.0416 41.4433 13.9822 41.1633 14.116 41.0162C14.2518 40.8683 14.5383 40.9095 14.7481 41.1091C14.9611 41.3055 15.0253 41.586 14.8826 41.7327L14.8818 41.7331ZM16.7005 42.5216C16.641 42.7127 16.367 42.7996 16.0902 42.718C15.8142 42.6343 15.6335 42.4109 15.6901 42.2177C15.7467 42.0249 16.0227 41.9348 16.3012 42.0217C16.5772 42.1049 16.7578 42.3272 16.7005 42.5216ZM18.6981 42.6675C18.705 42.8687 18.4706 43.0352 18.1808 43.0393C17.8886 43.0462 17.6522 42.8829 17.6494 42.6849C17.6494 42.4816 17.8789 42.3171 18.1707 42.3114C18.4605 42.3062 18.6985 42.4678 18.6985 42.6671L18.6981 42.6675ZM20.5563 42.3514C20.5911 42.5475 20.3894 42.7491 20.1013 42.8029C19.8184 42.8554 19.5557 42.7334 19.5193 42.539C19.4846 42.3377 19.6899 42.136 19.9728 42.0839C20.2613 42.0342 20.52 42.1526 20.5563 42.3518V42.3514Z" fill="#181616"/>
</svg>
