<svg width="53" height="52" viewBox="0 0 53 52" fill="none" xmlns="http://www.w3.org/2000/svg">
<path d="M21.7233 27.4424C21.7233 27.4424 20.3961 28.2147 22.6694 28.4758C25.4232 28.7902 26.8308 28.7449 29.865 28.1715C29.865 28.1715 30.6648 28.6714 31.7786 29.1046C24.9746 32.0197 16.3794 28.9357 21.7233 27.4424ZM20.8912 23.6375C20.8912 23.6375 19.4023 24.7403 21.6772 24.9755C24.6193 25.2791 26.9419 25.3041 30.9639 24.5298C30.9639 24.5298 31.5188 25.094 32.3929 25.4015C24.1679 27.8077 15.0065 25.591 20.8912 23.6375Z" fill="#0074BD"/>
<path d="M27.9 17.1828C29.5776 19.1137 27.4603 20.8499 27.4603 20.8499C27.4603 20.8499 31.7171 18.6526 29.7623 15.9001C27.936 13.3342 26.5365 12.0599 34.1153 7.66455C34.1157 7.66455 22.2183 10.635 27.9 17.1828Z" fill="#EA2D2E"/>
<path d="M36.8991 30.2567C36.8991 30.2567 37.8819 31.0669 35.8168 31.6934C31.8902 32.8827 19.4719 33.2416 16.0226 31.7406C14.7835 31.2011 17.1085 30.4527 17.8396 30.2954C18.6022 30.1302 19.0378 30.1605 19.0378 30.1605C17.6589 29.1893 10.1246 32.0676 15.2111 32.8932C29.0827 35.1415 40.4967 31.8805 36.8991 30.2567ZM22.3623 19.6949C22.3623 19.6949 16.046 21.1955 20.1258 21.7411C21.849 21.9714 25.2818 21.9185 28.4817 21.6502C31.0961 21.4307 33.7197 20.9615 33.7197 20.9615C33.7197 20.9615 32.7987 21.3567 32.1315 21.8118C25.7162 23.4991 13.3258 22.713 16.8931 20.9882C19.9092 19.5288 22.3623 19.6949 22.3623 19.6949ZM33.6935 26.0278C40.2142 22.6403 37.1989 19.3846 35.0946 19.8231C34.5801 19.9306 34.349 20.0235 34.349 20.0235C34.349 20.0235 34.5409 19.7228 34.9059 19.5939C39.0693 18.1309 42.2705 23.9105 33.5633 26.1995C33.5633 26.1995 33.6631 26.109 33.6935 26.0278Z" fill="#0074BD"/>
<path d="M29.7631 0.565552C29.7631 0.565552 33.374 4.17813 26.3376 9.73219C20.695 14.1886 25.0508 16.729 26.3352 19.6327C23.0415 16.6607 20.6255 14.0443 22.2461 11.6098C24.6261 8.03643 31.2196 6.30308 29.7631 0.565552Z" fill="#EA2D2E"/>
<path d="M23.0033 35.2106C29.261 35.6107 38.8734 34.988 39.1009 32.0269C39.1009 32.0269 38.6636 33.1491 33.9284 34.0399C28.5865 35.0454 21.997 34.9286 18.0898 34.2836C18.0898 34.2836 18.89 34.9463 23.0033 35.2106Z" fill="#0074BD"/>
<path d="M38.8122 40.5217H38.6214V40.415H39.1347V40.5217H38.9447V41.054H38.8118L38.8122 40.5217ZM39.8367 40.5484H39.8342L39.6451 41.054H39.5578L39.3699 40.5484H39.3679V41.054H39.2418V40.415H39.4265L39.6006 40.8673L39.7752 40.415H39.9587V41.054H39.8367V40.5484ZM21.9778 46.5256C21.3878 47.0372 20.7638 47.325 20.2033 47.325C19.4055 47.325 18.9727 46.8457 18.9727 46.0782C18.9727 45.2477 19.4358 44.6395 21.2916 44.6395H21.9774V46.5256H21.9778ZM23.6069 48.3636V42.6746C23.6069 41.2201 22.7772 40.2606 20.7792 40.2606C19.6128 40.2606 18.5904 40.5492 17.7591 40.9162L17.9983 41.9237C18.653 41.6832 19.4997 41.4601 20.3306 41.4601C21.4824 41.4601 21.9774 41.9237 21.9774 42.8831V43.6021H21.4019C18.6049 43.6021 17.3428 44.6872 17.3428 46.3191C17.3428 47.7251 18.1745 48.524 19.7405 48.524C20.7468 48.524 21.4989 48.1086 22.2009 47.5004L22.3286 48.364H23.6069V48.3636ZM29.0434 48.3636H27.0118L24.5663 40.4065H26.3409L27.8588 45.2962L28.1963 46.7652C28.9625 44.6403 29.5057 42.483 29.7773 40.4069H31.5033C31.0414 43.0262 30.2089 45.9024 29.0434 48.3636ZM36.8384 46.5256C36.2463 47.0372 35.6219 47.325 35.0634 47.325C34.2648 47.325 33.8324 46.8457 33.8324 46.0782C33.8324 45.2477 34.2967 44.6395 36.1505 44.6395H36.838V46.5256H36.8384ZM38.4682 48.3636V42.6746C38.4682 41.2201 37.6361 40.2606 35.6397 40.2606C34.4721 40.2606 33.4501 40.5492 32.6188 40.9162L32.8584 41.9237C33.5131 41.6832 34.361 41.4601 35.1919 41.4601C36.3421 41.4601 36.8384 41.9237 36.8384 42.8831V43.6021H36.2629C33.465 43.6021 32.2033 44.6872 32.2033 46.3191C32.2033 47.7251 33.0342 48.524 34.5998 48.524C35.6066 48.524 36.3574 48.1086 37.0614 47.5004L37.19 48.364H38.4682V48.3636ZM15.5565 49.7158C15.093 50.3944 14.3421 50.9315 13.5209 51.2342L12.717 50.2865C13.3422 49.9656 13.8777 49.4479 14.1271 48.9654C14.3421 48.5358 14.4314 47.9833 14.4314 46.6614V37.5756H16.1627V46.5365C16.1627 48.3046 16.0221 49.0195 15.5565 49.7158Z" fill="#EA2D2E"/>
</svg>
