<svg width="52" height="52" viewBox="0 0 52 52" fill="none" xmlns="http://www.w3.org/2000/svg">
<path d="M43.1402 0.999634H24.8894C24.8894 5.54941 28.5727 9.2319 33.1205 9.2319H36.4784V12.4812C36.4784 17.0309 40.1613 20.7138 44.7111 20.7138V2.57011C44.7107 2.15365 44.545 1.75439 44.2505 1.45995C43.956 1.16551 43.5567 0.999955 43.1402 0.999634Z" fill="#2684FF"/>
<path d="M34.0965 10.0986H15.8457C15.8457 14.6484 19.527 18.3301 24.0768 18.3301H27.4343V21.5802C27.4343 26.1299 31.1172 29.8132 35.667 29.8132V11.6695C35.6667 11.2531 35.5011 10.8537 35.2067 10.5592C34.9123 10.2647 34.513 10.0991 34.0965 10.0986Z" fill="url(#paint0_linear_26_324)"/>
<path d="M25.0525 19.1965H6.80005C6.80005 23.7463 10.4829 27.4292 15.0323 27.4292H18.3907V30.6797C18.3907 35.2278 22.0732 38.9107 26.623 38.9107V20.7674C26.6226 20.351 26.4571 19.9516 26.1627 19.6571C25.8682 19.3626 25.4689 19.197 25.0525 19.1965Z" fill="url(#paint1_linear_26_324)"/>
<path d="M18.6129 40.9505H20.0007V47.8128C20.0007 49.6237 19.1751 50.8866 17.2583 50.8866C16.5389 50.8866 15.9751 50.7666 15.5884 50.6308V49.3157C16.0115 49.4863 16.5211 49.5716 17.0311 49.5716C18.2088 49.5716 18.6129 48.8898 18.6129 47.8984V40.9505ZM22.55 40.4203C23.0948 40.4203 23.4816 40.7452 23.4816 41.3247C23.4816 41.8881 23.0948 42.2308 22.55 42.2308C22.0057 42.2308 21.6189 41.9055 21.6189 41.3247C21.6189 40.763 22.0057 40.4203 22.55 40.4203ZM21.865 43.3058H23.2007V50.8187H21.865V43.3058ZM26.5045 50.8187H25.2044V43.3058H26.5049V44.6209C26.9628 43.7322 27.7363 43.1009 29.247 43.1862V44.4503C27.5423 44.2798 26.5049 44.7741 26.5049 46.3797L26.5045 50.8187ZM35.4889 49.4689C34.9962 50.4603 34.0647 50.9723 32.8681 50.9723C30.813 50.9723 29.7756 49.281 29.7756 47.0615C29.7756 44.9446 30.8648 43.1527 33.0277 43.1527C34.1516 43.1527 35.031 43.6469 35.4889 44.6209V43.3058H36.8246V50.8187H35.4889V49.4689ZM33.2205 49.7769C34.4155 49.7769 35.4699 49.043 35.4699 47.3694V46.7725C35.4699 45.0994 34.504 44.3651 33.3607 44.3651C31.8674 44.3651 31.0935 45.3204 31.0935 47.0615C31.1113 48.872 31.85 49.7769 33.2205 49.7769Z" fill="#253858"/>
<defs>
<linearGradient id="paint0_linear_26_324" x1="35.2875" y1="10.1191" x2="27.522" y2="18.1263" gradientUnits="userSpaceOnUse">
<stop offset="0.176" stop-color="#0052CC"/>
<stop offset="1" stop-color="#2684FF"/>
</linearGradient>
<linearGradient id="paint1_linear_26_324" x1="26.7687" y1="19.2668" x2="17.79" y2="28.0022" gradientUnits="userSpaceOnUse">
<stop offset="0.176" stop-color="#0052CC"/>
<stop offset="1" stop-color="#2684FF"/>
</linearGradient>
</defs>
</svg>
