<svg width="51" height="51" viewBox="0 0 51 51" fill="none" xmlns="http://www.w3.org/2000/svg">
<path d="M0.0563965 0.438965V50.9561H50.5735V0.438965H0.0563965ZM26.7775 43.4848C26.0319 44.9999 24.6085 45.9953 22.9592 46.4758C20.4249 47.0578 18.0009 46.726 16.1976 45.6437C14.9909 44.9033 14.0484 43.7637 13.4087 42.4506L17.2561 40.0945C17.2896 40.1086 17.3906 40.2913 17.5256 40.5273C18.0162 41.3493 18.4394 41.9313 19.2711 42.3399C20.0882 42.6187 21.8822 42.797 22.5749 41.359C22.998 40.6275 22.8635 38.2763 22.8635 35.6749C22.8631 31.587 22.882 27.5161 22.882 23.4748H27.6141C27.6141 27.9203 27.6383 32.1306 27.6141 36.4686C27.6242 39.1278 27.855 41.4985 26.7775 43.4848ZM46.4081 42.1479C44.7632 47.7743 35.5926 47.957 31.9278 44.2397C31.1535 43.3648 30.6681 42.9077 30.2062 41.8978C32.1538 40.7775 32.1538 40.7775 34.0488 39.6811C35.0781 41.2633 36.0298 42.1334 37.7422 42.4894C40.0651 42.7731 42.4023 41.9749 41.8781 39.5077C41.3394 37.4927 37.1214 37.0024 34.2508 34.8476C31.3366 32.8904 30.6536 28.1345 33.0485 25.417C33.8467 24.412 35.2078 23.6619 36.636 23.3014L38.1265 23.1086C40.9882 23.0508 42.7769 23.8066 44.0899 25.2728C44.4553 25.643 44.7535 26.0423 45.3112 26.9075C43.7868 27.8791 43.7917 27.8698 41.6081 29.2834C41.1418 28.2787 40.3678 27.6483 39.5499 27.3743C38.2801 26.9895 36.6789 27.4078 36.3467 28.7496C36.2315 29.163 36.2553 29.5477 36.4384 30.2307C36.9529 31.4039 38.6794 31.914 40.228 32.6256C44.686 34.4337 46.1915 36.3724 46.5616 38.68C46.9181 40.6668 46.4756 41.9555 46.4081 42.1479Z" fill="#F0DB4F"/>
</svg>
