<svg width="53" height="52" viewBox="0 0 53 52" fill="none" xmlns="http://www.w3.org/2000/svg">
<path d="M1.60538 36.5923H3.26558V30.036L5.83589 35.7517C6.13899 36.4436 6.55404 36.6881 7.36838 36.6881C8.18271 36.6881 8.582 36.4436 8.8851 35.7517L11.4554 30.036V36.5923H13.1156V30.0469C13.1156 29.4084 12.8602 29.0992 12.3332 28.94C11.0719 28.5464 10.2256 28.887 9.8425 29.7386L7.32028 35.3795L4.87809 29.7382C4.51073 28.887 3.6487 28.5464 2.38739 28.9396C1.8604 29.0992 1.60498 29.408 1.60498 30.0465V36.5923H1.60538ZM14.4965 31.2553H16.1563V34.8675C16.141 35.0635 16.2194 35.5242 17.1287 35.5387C17.5926 35.546 20.7101 35.5387 20.7392 35.5387V31.2375H22.4031C22.4108 31.2375 22.4015 37.1031 22.4015 37.1274C22.4104 38.5742 20.6067 38.8882 19.775 38.9125H14.5325V37.7954C14.5414 37.7954 19.7713 37.7966 19.7843 37.795C20.8532 37.6823 20.7267 37.1512 20.7263 36.9726V36.5369H17.1978C15.5562 36.522 14.5103 35.8055 14.4969 34.981C14.4961 34.9054 14.5329 31.2917 14.4965 31.2553Z" fill="#00618A"/>
<path d="M23.6833 36.5923H28.457C29.0159 36.5923 29.5591 36.4755 29.9899 36.2734C30.7081 35.9436 31.0593 35.4967 31.0593 34.9107V33.6974C31.0593 33.2185 30.6604 32.7712 29.878 32.4737C29.4629 32.3137 28.9517 32.2292 28.4566 32.2292H26.4448C25.7744 32.2292 25.4551 32.0272 25.3755 31.5802C25.3597 31.5268 25.3597 31.4844 25.3597 31.431V30.6753C25.3597 30.6329 25.3597 30.59 25.3755 30.5371C25.4551 30.1964 25.6309 30.1006 26.2217 30.0473L26.3814 30.0368H31.1231V28.9303H26.4614C25.7909 28.9303 25.4397 28.9727 25.1205 29.0685C24.1307 29.3772 23.6991 29.8666 23.6991 30.7182V31.6865C23.6991 32.4317 24.5458 33.0702 25.9663 33.2194C26.1264 33.2295 26.2856 33.2408 26.4452 33.2408H28.1697C28.2335 33.2408 28.2974 33.2408 28.3455 33.2509C28.8725 33.2933 29.0956 33.3895 29.2556 33.5807C29.2966 33.6185 29.3291 33.6646 29.3511 33.716C29.373 33.7673 29.3839 33.8227 29.3829 33.8785V34.8472C29.3829 34.964 29.3033 35.1131 29.1436 35.2408C29.0002 35.3686 28.7605 35.4538 28.4413 35.4752L28.2655 35.4858H23.6833V36.5923ZM41.4173 34.6662C41.4173 35.8046 42.2635 36.4432 43.9714 36.5713C44.1311 36.5818 44.2907 36.5923 44.4503 36.5923H48.777V35.4858H44.4188C43.4448 35.4858 43.0779 35.2408 43.0779 34.6553V28.9294H41.4177V34.6662H41.4173ZM32.1189 34.7236V30.7772C32.1189 29.7749 32.8229 29.1667 34.2148 28.9747C34.3631 28.9534 34.5127 28.9428 34.6625 28.9428H37.8144C37.9744 28.9428 38.1183 28.9533 38.2779 28.9747C39.6698 29.1667 40.3742 29.7745 40.3742 30.7772V34.7236C40.3742 35.5375 40.0751 35.9723 39.3861 36.256L41.022 37.7324H39.0939L37.7708 36.5377L36.4387 36.6222H34.6625C34.3326 36.6201 34.0044 36.5735 33.687 36.4836C32.6309 36.1958 32.1189 35.6409 32.1189 34.7236ZM33.9108 34.6278C33.9108 34.6811 33.9266 34.7349 33.9428 34.7987C34.0385 35.2574 34.471 35.5132 35.1265 35.5132H36.6347L35.2493 34.2624H37.1775L38.3854 35.3536C38.6085 35.2344 38.7548 35.0533 38.8062 34.8201C38.8219 34.7668 38.8219 34.7135 38.8219 34.6601V30.8741C38.8219 30.8317 38.8219 30.778 38.8062 30.7246C38.71 30.2979 38.2779 30.0529 37.6382 30.0529H35.1261C34.3906 30.0529 33.9104 30.373 33.9104 30.8741V34.6278H33.9108Z" fill="#E48E00"/>
<path d="M50.2374 27.0926C49.217 27.0648 48.4374 27.1597 47.7706 27.4406C47.581 27.5206 47.2791 27.5226 47.2484 27.7599C47.3523 27.8694 47.3684 28.0323 47.4513 28.1664C47.6105 28.4239 47.8793 28.769 48.1189 28.9497C48.3804 29.1473 48.6504 29.359 48.9316 29.5304C49.4308 29.8351 49.9885 30.0089 50.4698 30.3136C50.7531 30.4939 51.0344 30.7202 51.3112 30.9235C51.4482 31.0233 51.5395 31.1797 51.7178 31.2423V31.2136C51.6244 31.0948 51.6002 30.9315 51.5145 30.8071L51.137 30.4296C50.768 29.9398 50.3001 29.5102 49.8018 29.1529C49.4049 28.868 48.5166 28.4829 48.3509 28.0209L48.3218 27.9923C48.6031 27.9603 48.9329 27.8585 49.1923 27.789C49.6288 27.6718 50.0188 27.7021 50.4694 27.5857L51.0788 27.4111V27.2955C50.8513 27.0619 50.6884 26.7524 50.4403 26.541C49.7908 25.9877 49.0812 25.4349 48.3509 24.9733C47.946 24.7179 47.4452 24.5518 47.0156 24.3352C46.8718 24.2621 46.618 24.2245 46.5222 24.1028C46.2963 23.8155 46.1738 23.4514 45.9996 23.1163C45.6276 22.3926 45.2792 21.6569 44.9549 20.9106C44.7351 20.4074 44.5912 19.9111 44.3168 19.4597C42.9989 17.2931 41.5804 15.9853 39.3831 14.7002C38.9155 14.4266 38.3525 14.3191 37.7581 14.178L36.8003 14.1198C36.6059 14.0386 36.403 13.8002 36.2199 13.6846C35.4917 13.2247 33.6246 12.2244 33.0854 13.5399C32.7451 14.37 33.5946 15.1799 33.8982 15.6006C34.1111 15.8956 34.3843 16.2262 34.5367 16.558C34.6369 16.7762 34.6539 16.9949 34.74 17.2256C34.9505 17.7939 35.1344 18.4126 35.4072 18.9376C35.545 19.2035 35.6974 19.4836 35.8716 19.7212C35.9782 19.8667 36.1617 19.9313 36.1904 20.1564C36.0114 20.407 36.0009 20.7966 35.9002 21.1138C35.4468 22.5441 35.6178 24.3219 36.2777 25.3803C36.4802 25.7056 36.9571 26.4024 37.6126 26.1348C38.186 25.9012 38.0583 25.1774 38.2224 24.5385C38.2596 24.3942 38.2366 24.2875 38.3093 24.1905V24.2196L38.8319 25.2643C39.2186 25.8871 39.9044 26.5374 40.486 26.9767C40.7875 27.2042 41.0251 27.5982 41.4147 27.7312V27.7017H41.386C41.31 27.5841 41.1924 27.5356 41.0954 27.4406C40.8683 27.2179 40.6157 26.9415 40.4282 26.6861C39.8992 25.9683 39.432 25.1823 39.006 24.3643C38.8028 23.9739 38.6261 23.5431 38.4548 23.1454C38.3885 22.9923 38.3893 22.7603 38.2519 22.6815C38.0636 22.9725 37.7876 23.2081 37.6421 23.552C37.4101 24.1016 37.3802 24.7721 37.2941 25.4672L37.2359 25.4959C36.8314 25.3985 36.6895 24.9822 36.5392 24.6254C36.1593 23.7229 36.0886 22.2693 36.4232 21.2302C36.5097 20.9611 36.9005 20.1144 36.7421 19.8659C36.6665 19.6181 36.4171 19.4751 36.2781 19.2851C36.0957 19.031 35.9401 18.7586 35.8138 18.4724C35.5026 17.7688 35.3575 16.9787 35.0305 16.267C34.8737 15.9267 34.6094 15.5828 34.392 15.2805C34.1515 14.9451 33.882 14.6986 33.6953 14.2936C33.629 14.1498 33.5389 13.919 33.6371 13.7711C33.6682 13.6713 33.7131 13.6296 33.8117 13.5969C33.9798 13.4672 34.4486 13.6401 34.624 13.7129C35.0895 13.9065 35.4779 14.0903 35.8724 14.3514C36.0615 14.4771 36.2527 14.7196 36.4818 14.7867H36.7429C37.1515 14.8804 37.6093 14.8154 37.9908 14.9314C38.6658 15.1367 39.2703 15.4555 39.8192 15.8023C41.4919 16.8587 42.8591 18.3621 43.7951 20.1556C43.9454 20.4446 44.0109 20.7198 44.143 21.0261C44.4106 21.6437 44.7476 22.2794 45.0135 22.8836C45.2791 23.4861 45.5381 24.0944 45.9135 24.5959C46.1108 24.8594 46.873 25.0008 47.2193 25.1471C47.4622 25.2498 47.8599 25.3569 48.0898 25.4951C48.5291 25.7602 48.9551 26.0758 49.3669 26.366C49.5726 26.5123 50.2059 26.8304 50.2374 27.0926ZM37.265 16.0359C37.0891 16.033 36.9135 16.0525 36.7425 16.0941V16.1228H36.7716C36.873 16.3317 37.052 16.4659 37.1777 16.6453L37.4683 17.2547L37.497 17.226C37.6768 17.0995 37.7589 16.8971 37.7581 16.5875C37.6857 16.5115 37.6752 16.4166 37.613 16.3264C37.5305 16.2052 37.3697 16.1373 37.265 16.0359Z" fill="#00618A"/>
</svg>
