<svg width="53" height="53" viewBox="0 0 53 53" fill="none" xmlns="http://www.w3.org/2000/svg">
<path fill-rule="evenodd" clip-rule="evenodd" d="M26.0994 40.8075C26.8237 41.4065 27.6727 41.6619 28.5893 41.7092C28.9684 41.729 29.3584 41.7104 29.7314 41.6425C30.3231 41.535 30.9131 41.4 31.4886 41.2266C32.6606 40.873 33.6734 40.2619 34.4295 39.275C34.8603 38.7125 35.2139 38.1043 35.4411 37.4318C35.6286 36.8769 35.8048 36.3163 35.945 35.7485C36.0558 35.3012 36.1107 34.8392 36.1778 34.3822C36.2227 34.0799 36.2497 33.7743 36.2776 33.4692C36.3229 32.9741 36.3702 32.4799 36.4029 31.9836C36.4259 31.6385 36.4251 31.2917 36.4385 30.9462C36.4429 30.8407 36.4599 30.736 36.47 30.6314C36.4785 30.534 36.5278 30.5004 36.6272 30.502C36.9764 30.5073 37.3264 30.5162 37.6751 30.5004C38.0659 30.483 38.4596 30.4661 38.8443 30.4018C39.3918 30.3101 39.935 30.1942 40.4722 30.0543C41.1059 29.8882 41.6874 29.5911 42.2475 29.2533C42.899 28.8592 43.4939 28.3973 43.9752 27.802C44.3951 27.2839 44.594 26.6833 44.4925 26.0282C44.3454 25.0765 43.5456 24.4529 42.6157 24.4105C42.2787 24.3951 41.9368 24.4307 41.6013 24.4731C41.1952 24.5248 40.7951 24.6162 40.3901 24.6764C40.1105 24.7184 39.8272 24.737 39.5483 24.7661L39.5406 24.7297C40.062 23.7449 40.6051 22.7713 41.0982 21.7731C41.4769 21.0068 41.8002 20.2135 42.1344 19.4254C42.688 18.1209 43.1298 16.7763 43.4959 15.4091C43.8463 14.1005 44.1462 12.7778 44.2411 11.4199C44.2791 10.878 44.3054 10.3336 44.3018 9.79083C44.2993 9.35759 44.2525 8.92395 44.2092 8.49233C44.1599 7.99767 44.0104 7.52887 43.8035 7.07785C43.5311 6.48296 43.1079 5.99517 42.663 5.53203C42.3069 5.16103 41.9149 4.82317 41.5266 4.48532C40.9725 4.00358 40.3493 3.61844 39.7027 3.27695C38.9697 2.88762 38.1932 2.58646 37.3894 2.37976C36.8996 2.25627 36.4067 2.14563 35.9111 2.04797C35.7349 2.0124 35.5571 1.92188 35.3796 1.92188H32.0382C31.9174 1.92188 31.7978 2.00109 31.6761 2.01442C30.8764 2.10171 30.0868 2.26477 29.318 2.50141C29.0311 2.58991 28.7692 2.53818 28.4964 2.51272C28.287 2.49332 28.0813 2.43957 27.872 2.42907C27.0754 2.38946 26.2781 2.33207 25.4811 2.34056C24.7181 2.34864 23.9628 2.47473 23.2244 2.68408C22.6065 2.86028 22.0015 3.07407 21.447 3.3994C21.2102 3.53842 21.0219 3.51215 20.7766 3.44183C19.9527 3.20048 19.1217 2.9843 18.2846 2.7936C17.7629 2.6768 17.2258 2.6178 16.6927 2.56284C16.1812 2.5097 15.6676 2.47775 15.1534 2.46706C14.6515 2.45614 14.1463 2.45655 13.6464 2.501C12.8506 2.57173 12.0702 2.73338 11.3113 2.99445C10.4746 3.28049 9.69289 3.70703 8.9996 4.25577C8.29236 4.8155 7.72495 5.49808 7.26949 6.27847C6.78897 7.1017 6.45879 7.98312 6.2543 8.90819C6.14316 9.40972 6.18398 9.9254 6.1076 10.4346C6.08416 10.5922 6.13144 10.7507 6.13144 10.9091V13.1258C6.13144 13.2729 6.0882 13.4204 6.10679 13.5683C6.15245 13.9235 6.13669 14.2816 6.19691 14.6344C6.29148 15.1929 6.37675 15.7494 6.49153 16.3039C6.65197 17.0786 6.80514 17.8525 6.98296 18.6236C7.11228 19.185 7.25252 19.7431 7.40649 20.298C7.64089 21.1459 7.86963 21.995 8.13515 22.8327C8.38208 23.6115 8.66336 24.379 8.94423 25.1468C9.3291 26.2086 9.80084 27.2368 10.3547 28.2211C10.8376 29.0742 11.3885 29.8732 12.128 30.5299C12.6158 30.9632 13.1578 31.2958 13.7886 31.4623C14.2814 31.5931 14.7979 31.6075 15.2973 31.5043C15.8761 31.3867 16.4168 31.1277 16.8714 30.7506C16.9247 30.7073 16.9825 30.6738 17.046 30.7538C17.286 31.0577 17.6069 31.2606 17.9427 31.4356C18.8488 31.9084 19.8361 32.0503 20.8388 32.1077C21.0821 32.1214 21.327 32.0867 21.5715 32.0802C22.0488 32.0669 22.5119 31.9739 22.9674 31.8422C23.2066 31.773 23.4398 31.6849 23.6831 31.6033C23.6956 31.8624 23.7118 32.1113 23.7199 32.3607L23.7534 33.7198C23.7599 33.9267 23.768 34.1336 23.787 34.3397C23.8363 34.8708 23.8844 35.4018 23.9478 35.9312C23.9915 36.2961 24.0375 36.6635 24.1232 37.02C24.2955 37.7383 24.531 38.4399 24.8272 39.1166C25.1108 39.7734 25.5469 40.3531 26.0994 40.8075ZM24.6482 34.031C24.6195 33.3928 24.5981 32.7544 24.5839 32.1158C24.567 31.3309 24.5613 30.5457 24.5504 29.7608L24.5484 29.7309C24.1495 29.9706 23.7563 30.2325 23.3404 30.4487C22.8526 30.7021 22.3232 30.8488 21.7748 30.8904C21.3452 30.9227 20.9091 30.9522 20.4815 30.9183C19.78 30.8613 19.0784 30.7518 18.4503 30.4059C18.1957 30.2656 17.9298 30.0947 17.754 29.8712C17.3333 29.3341 17.535 28.6555 18.1695 28.329C18.608 28.1027 19.0865 28.0085 19.5617 27.8986C19.9754 27.8048 20.3848 27.6929 20.7887 27.5632C21.1872 27.4326 21.4385 27.1093 21.6871 26.7921L22.0807 26.2861L21.6075 26.2368C21.1379 26.1931 20.6897 26.0634 20.2613 25.8735C19.8951 25.7114 19.8895 25.6936 19.6203 25.9854C19.1717 26.4724 18.7353 26.9715 18.2952 27.467C17.9714 27.8315 17.6502 28.198 17.3272 28.5638C17.0088 28.9255 16.7097 29.3074 16.3658 29.6436C15.8558 30.1432 15.2407 30.4434 14.5068 30.4095C14.036 30.3877 13.6051 30.2228 13.2172 29.9532C12.4174 29.3963 11.8787 28.6163 11.3876 27.798C10.7592 26.7488 10.2763 25.6314 9.86364 24.4836C9.57792 23.6899 9.29058 22.8958 9.04163 22.0907C8.77045 21.2158 8.53242 20.3307 8.29842 19.4448C8.12141 18.7768 7.9646 18.1031 7.81507 17.4282C7.64293 16.6611 7.48368 15.8911 7.33738 15.1186C7.23999 14.5968 7.18381 14.0674 7.10501 13.5424C6.99872 12.834 6.97932 12.1199 7.01812 11.409C7.05247 10.7684 7.14421 10.1299 7.23554 9.49378C7.36204 8.61357 7.65221 7.78307 8.06928 6.99864C8.32655 6.52063 8.64187 6.07622 9.00809 5.6755C9.61025 5.00908 10.3389 4.52775 11.1496 4.16605C11.7158 3.91346 12.3143 3.76191 12.9242 3.64269C13.8294 3.46649 14.7428 3.47376 15.6561 3.49235C16.0554 3.50084 16.4535 3.57318 16.8524 3.61319C17.7116 3.69846 18.5534 3.87951 19.3847 4.10219C19.9909 4.26466 20.5846 4.47562 21.1851 4.65829C21.2449 4.67647 21.3335 4.67486 21.3832 4.64293C22.1975 4.11108 23.087 3.76029 24.0339 3.55944C24.3932 3.48346 24.7642 3.44992 25.1315 3.42648C25.5777 3.39859 26.0283 3.37192 26.4737 3.39819C27.0092 3.4289 27.543 3.50771 28.0753 3.58045C28.3339 3.61602 28.5861 3.70533 28.8447 3.72958C28.9692 3.7413 29.1006 3.65118 29.2315 3.62046C29.8999 3.46568 30.5656 3.29392 31.2401 3.17227C31.742 3.08175 32.2553 3.03891 32.7653 3.00981C33.3351 2.97708 33.9082 2.95323 34.4772 2.98071C35.1966 3.01547 35.9107 3.11772 36.6155 3.2818C37.4892 3.48508 38.3266 3.7801 39.1232 4.18989C39.7185 4.49663 40.2838 4.85146 40.7935 5.28793C41.1273 5.57446 41.4692 5.85696 41.7703 6.17622C42.1421 6.56985 42.5211 6.96308 42.7547 7.46704C42.9305 7.84733 43.0558 8.24096 43.0906 8.65682C43.1334 9.17452 43.1855 9.69383 43.1811 10.2123C43.1767 10.7078 43.1088 11.2029 43.0611 11.6975C42.9515 12.8243 42.707 13.9268 42.4092 15.0147C42.1607 15.9133 41.8791 16.8025 41.565 17.6804C41.2784 18.4899 40.9474 19.2844 40.6132 20.0761C40.3669 20.6623 40.0994 21.2394 39.8114 21.8062C39.2642 22.878 38.6952 23.9389 38.0368 24.9492C37.9233 25.1234 37.8154 25.302 37.7046 25.4802C37.992 25.6738 38.3173 25.7421 38.6447 25.7777C38.9562 25.8112 39.2739 25.8318 39.5851 25.8084C40.0834 25.7712 40.5801 25.7001 41.0755 25.631C41.5662 25.5623 42.0467 25.4228 42.551 25.4596C43.0538 25.4964 43.4143 25.8787 43.3799 26.3499C43.3581 26.6482 43.2211 26.904 43.0231 27.1226C42.0875 28.1548 40.9131 28.7804 39.5697 29.0888C39.0593 29.206 38.5331 29.2662 38.0106 29.3151C37.5643 29.3545 37.116 29.365 36.6684 29.3466C36.3403 29.3345 36.0149 29.2593 35.6795 29.2108C35.6456 29.5176 35.6136 29.8372 35.5748 30.1557L35.4184 31.3774C35.3712 31.7646 35.3344 32.1533 35.2855 32.5405C35.2378 32.9163 35.1784 33.2902 35.1283 33.6656C35.0818 34.0152 35.0474 34.3668 34.9949 34.716C34.9153 35.251 34.8389 35.7873 34.7342 36.3184C34.6089 36.9529 34.4174 37.5672 34.1034 38.1398C33.7211 38.8386 33.1791 39.3708 32.4888 39.7649C31.7776 40.171 30.9996 40.3824 30.2119 40.5594C29.6534 40.6851 29.0791 40.7053 28.5138 40.654C27.5337 40.5654 26.6972 40.1464 26.0647 39.3862C25.4613 38.6608 25.0527 37.8298 24.9068 36.8886C24.8381 36.4408 24.7848 35.9907 24.7468 35.5392C24.703 35.0372 24.6702 34.5344 24.6482 34.031ZM25.7499 27.5834C25.7559 27.9188 25.7212 28.2542 25.7228 28.5897C25.7297 30.1508 25.741 31.7124 25.7543 33.274C25.7567 33.529 25.7693 33.7848 25.7874 34.0394C25.8258 34.5729 25.8638 35.1068 25.9156 35.6386C25.9527 36.0165 26.0033 36.3931 26.0627 36.7682C26.1475 37.2988 26.3892 37.7716 26.6632 38.2239C26.8992 38.6127 27.2068 38.9424 27.6113 39.1704C28.2992 39.5571 29.0391 39.5895 29.7852 39.4472C30.2891 39.3514 30.7846 39.1966 31.2736 39.037C31.7549 38.8826 32.1943 38.6198 32.558 38.2687C32.9011 37.9365 33.1444 37.5312 33.3084 37.0838C33.6265 36.2165 33.7263 35.3028 33.8577 34.3967C33.907 34.0572 33.9498 33.7169 33.9947 33.3771C34.046 32.9903 34.0977 32.6039 34.147 32.2172C34.1842 31.9286 34.2173 31.6405 34.2525 31.3523C34.303 30.9385 34.356 30.5251 34.4041 30.1112C34.4408 29.7912 34.4715 29.4699 34.5047 29.149C34.5467 28.7388 34.5916 28.3298 34.6283 27.9188C34.6558 27.6076 34.6445 27.2904 34.6999 26.9844C34.8013 26.4239 35.0664 25.947 35.5635 25.6382C35.7712 25.5097 36.0065 25.4249 36.2368 25.3157L36.1972 25.2555C35.9842 24.9791 35.766 24.7071 35.5571 24.4275C35.2289 23.9886 34.9929 23.4991 34.7556 23.0073C34.531 22.5409 34.2561 22.0996 34.0197 21.6385C33.6071 20.8343 33.1868 20.0321 32.8065 19.2129C32.3284 18.1823 31.9517 17.1162 31.8333 15.9749C31.7828 15.4924 31.7699 15.0098 31.8681 14.5318C32.0245 13.7679 32.423 13.1706 33.0938 12.7608C33.7162 12.3809 34.4093 12.2581 35.1194 12.2197C35.5599 12.1958 36.0032 12.2152 36.4603 12.2152L36.4453 12.1381C36.1608 11.5432 35.8953 10.9382 35.5837 10.3578C35.1448 9.53824 34.5823 8.79948 33.9567 8.11366C33.495 7.60371 32.9877 7.13701 32.4412 6.71938C31.9004 6.30999 31.3306 5.94425 30.7224 5.64559C29.9998 5.28619 29.2367 5.01482 28.4495 4.83732C27.6877 4.66839 26.9219 4.56493 26.1403 4.55644C25.4742 4.54917 24.8123 4.57988 24.1632 4.72982C23.1836 4.95654 22.2876 5.35987 21.5089 6.01295C21.0775 6.37452 20.6922 6.78767 20.3615 7.24315C19.9707 7.77863 19.6563 8.35816 19.3871 8.96477C19.0177 9.7977 18.7644 10.6638 18.5906 11.5545C18.5041 11.999 18.4362 12.4464 18.3671 12.8938C18.3428 13.051 18.3412 13.2106 18.3267 13.3905L18.6225 13.2365L18.9111 13.1072C19.8879 12.6606 20.8994 12.3733 21.9865 12.406C22.4489 12.4197 22.8902 12.5115 23.3016 12.7139C24.0897 13.1027 24.5504 13.7635 24.7508 14.5992C24.8891 15.1764 24.984 15.7648 25.0762 16.352C25.1481 16.8103 25.2221 17.2734 25.2301 17.7358C25.2419 18.4115 25.2079 19.0888 25.1711 19.7641C25.1397 20.3384 25.0209 20.9045 24.8187 21.4429C24.4534 22.4193 24.046 23.3799 23.6657 24.3507C23.54 24.6716 23.4435 25.0033 23.325 25.3562L23.8052 25.3566C23.8634 25.3578 23.9228 25.3594 23.9789 25.3727C24.4158 25.4758 24.7953 25.6738 25.1061 26.0101C25.5215 26.4562 25.739 26.9784 25.7499 27.5834ZM17.4056 22.954C17.158 22.3713 17.0086 21.7515 16.9635 21.12C16.9215 20.5243 16.9922 19.9318 17.0536 19.3386C17.1126 18.7643 17.1628 18.1872 17.1797 17.6109C17.2084 16.6624 17.1446 15.7163 17.0993 14.7686C17.0722 14.2044 17.1377 13.6334 17.1878 13.068C17.2331 12.5588 17.2897 12.0483 17.3862 11.5464C17.5475 10.7042 17.7621 9.87408 18.0672 9.06944C18.3562 8.30643 18.6892 7.56403 19.158 6.89518C19.4801 6.43608 19.8446 6.0081 20.195 5.55951L20.0907 5.52233C18.9499 5.16022 17.79 4.87652 16.5966 4.75326C16.0328 4.69466 15.4666 4.66071 14.9012 4.62676C14.7274 4.61666 14.5512 4.6401 14.377 4.65667C13.9458 4.6983 13.509 4.71446 13.0846 4.79529C12.3624 4.93269 11.6693 5.16386 11.028 5.54011C10.4604 5.8741 9.96275 6.31476 9.56256 6.8378C9.11518 7.41612 8.81329 8.07001 8.59708 8.76674C8.34166 9.58916 8.21962 10.4358 8.18688 11.2898C8.15819 12.0386 8.14404 12.7915 8.27337 13.5376C8.36915 14.0925 8.4334 14.6538 8.53929 15.2071C8.68163 15.9614 8.84144 16.7124 9.01859 17.4593C9.27441 18.5279 9.53064 19.5972 9.83414 20.6528C10.1243 21.6636 10.4513 22.6654 10.8069 23.6556C11.0971 24.4634 11.4329 25.2563 11.7865 26.0383C12.0169 26.548 12.2957 27.0386 12.5883 27.5155C12.8991 28.0223 13.2531 28.5032 13.7324 28.8709C14.3382 29.3349 14.8066 29.4072 15.4225 28.8976C15.686 28.6798 15.9087 28.4098 16.1383 28.1532C16.5024 27.7458 16.854 27.3263 17.2169 26.9169C17.6788 26.396 18.1464 25.8803 18.6108 25.361C18.709 25.2515 18.804 25.1383 18.8993 25.0276L18.7405 24.889C18.168 24.342 17.7136 23.6834 17.4056 22.954ZM34.9213 7.4339C35.3012 7.87512 35.6615 8.33277 36.0012 8.80554C36.6524 9.71867 37.1765 10.716 37.5591 11.7703C37.7289 12.2371 37.8647 12.7083 37.8041 13.2187C37.762 13.5764 37.7649 13.9389 37.7337 14.2986C37.7075 14.5976 37.6598 14.8951 37.6214 15.1933C37.5632 15.6427 37.4791 16.0913 37.4541 16.5427C37.4298 16.9727 37.4553 17.4068 37.4824 17.8372C37.5094 18.2749 37.5684 18.7105 37.6085 19.147C37.6537 19.6429 37.7151 20.1375 37.7289 20.6342C37.7402 21.0416 37.7038 21.451 37.6687 21.8584C37.6235 22.3464 37.505 22.8249 37.3171 23.2777C37.1865 23.5986 37.0309 23.9089 36.8842 24.2298L36.9432 24.2921L37.033 24.3616L37.1239 24.1999C37.8871 22.9991 38.5651 21.7464 39.1531 20.4507C39.53 19.6145 39.8877 18.7696 40.2256 17.9168C40.7526 16.5912 41.1783 15.2275 41.4991 13.8374C41.6446 13.2135 41.7561 12.5798 41.8547 11.9461C41.9319 11.4506 41.9958 10.9495 42.0103 10.4496C42.0253 9.91934 41.9962 9.38507 41.9473 8.85646C41.9105 8.45717 41.8119 8.05546 41.5621 7.73013C41.1596 7.20758 40.7256 6.70807 40.1917 6.31242C39.7419 5.97981 39.2933 5.63751 38.8112 5.35785C38.0461 4.9137 37.2181 4.61868 36.3528 4.41742C35.5077 4.22061 34.6526 4.13574 33.7918 4.11755C33.2842 4.10664 32.7742 4.1612 32.2678 4.20929C31.8087 4.25213 31.3524 4.32568 30.8905 4.3863C31.3864 4.66516 31.8758 4.9133 32.3365 5.20549C33.3064 5.81978 34.1761 6.55894 34.9213 7.4339ZM22.3204 24.6352C22.6336 23.6329 23.0607 22.6751 23.4742 21.7125C23.81 20.9313 23.9931 20.1088 24.0541 19.2634C24.0844 18.8467 24.0763 18.4248 24.0557 18.0069C24.0356 17.542 23.993 17.0783 23.928 16.6175C23.8411 16.0299 23.7425 15.4419 23.6035 14.8652C23.4527 14.2412 23.0729 13.8063 22.4214 13.6459C22.0249 13.5485 21.6305 13.5525 21.2292 13.616C20.25 13.77 19.3536 14.1309 18.5186 14.6595C18.3505 14.7658 18.2576 14.8518 18.2871 15.0923C18.3485 15.6031 18.3618 16.122 18.3594 16.6373C18.3562 17.3668 18.3251 18.0962 18.2976 18.8253C18.2887 19.0625 18.2543 19.2994 18.2285 19.5358C18.1897 19.8979 18.1141 20.2596 18.1165 20.6213C18.1189 20.9939 18.1569 21.375 18.2475 21.7359C18.5348 22.8804 19.1426 23.8164 20.1396 24.4772C20.7527 24.8837 21.4309 25.0882 22.1757 25.1274C22.225 24.9565 22.2706 24.7952 22.3204 24.6352ZM21.15 14.8191C21.0186 14.5439 21.0938 14.3155 21.3977 14.2097C21.4721 14.1842 21.5481 14.1559 21.6248 14.1486C21.7311 14.1381 21.8382 14.1458 21.9453 14.1458C22.3313 14.1482 22.7023 14.202 23.0203 14.4469C23.2248 14.6045 23.2798 14.8126 23.1472 15.0276C22.9593 15.3319 22.6736 15.4847 22.322 15.5138C21.7687 15.5595 21.3803 15.3016 21.15 14.8191ZM36.4971 14.7185L36.6228 13.6172C36.6409 13.4701 36.5638 13.4297 36.4401 13.426C36.0509 13.4155 35.6621 13.4014 35.2729 13.3949C34.8349 13.3868 34.4077 13.4572 34.0019 13.6237C33.5517 13.8092 33.209 14.1058 33.0688 14.596C32.9662 14.9572 32.9338 15.3348 32.9734 15.7082C33.0281 16.286 33.159 16.854 33.3626 17.3975C33.635 18.1221 33.9195 18.8463 34.2602 19.5406C34.7213 20.4802 35.2426 21.3904 35.7324 22.3158C35.863 22.5628 35.9737 22.821 36.1099 23.1092C36.3849 22.5359 36.5351 21.9108 36.5504 21.2752C36.5638 20.7494 36.5221 20.2224 36.4914 19.6966C36.4724 19.3749 36.4268 19.0549 36.3956 18.734C36.3524 18.287 36.2861 17.8396 36.2756 17.3914C36.2655 16.9356 36.2978 16.4773 36.3366 16.0218C36.373 15.5861 36.4449 15.1533 36.4971 14.7185ZM35.6205 14.3653C35.4758 14.7641 35.1671 14.9896 34.7662 15.0555C34.3927 15.1174 34.0654 14.9795 33.8221 14.6813C33.6487 14.4691 33.715 14.2181 33.9749 14.0743C34.2731 13.9094 34.6009 13.8678 34.9876 13.8427C35.0931 13.8617 35.2507 13.8783 35.4011 13.9207C35.6189 13.9821 35.6997 14.147 35.6205 14.3653ZM24.063 26.6522C23.8496 26.4776 23.5667 26.4675 23.3638 26.6591C23.1117 26.8975 22.8898 27.1699 22.6679 27.4383C22.4121 27.7486 22.1712 28.0712 21.8415 28.3116C21.3609 28.6612 20.7996 28.8059 20.2362 28.9429C19.7884 29.052 19.3382 29.1534 18.8892 29.2577L18.8836 29.3159C19.0169 29.3773 19.1459 29.4545 19.2853 29.4986C19.9703 29.7152 20.6674 29.8235 21.3917 29.7621C21.9138 29.7172 22.4117 29.6032 22.8833 29.3797C23.5328 29.0722 24.0327 28.5844 24.4574 28.0178C24.5286 27.9232 24.5609 27.7834 24.569 27.6614C24.5977 27.2305 24.379 26.9101 24.063 26.6522ZM36.569 26.4655C36.2332 26.5783 35.96 26.75 35.8787 27.1133C35.8234 27.3591 35.8032 27.6133 35.7818 27.865C35.7777 27.9095 35.8331 27.9911 35.8751 28.0024C36.1338 28.0707 36.394 28.1512 36.6583 28.175C36.9837 28.2045 37.3142 28.1952 37.6416 28.1791C37.9948 28.1613 38.3504 28.1382 38.6988 28.08C39.5188 27.9418 40.3129 27.7179 41.0177 27.2524C41.2724 27.0847 41.5237 26.9133 41.7767 26.7428L41.7557 26.7068C41.4861 26.7468 41.2174 26.7957 40.9466 26.8244C40.3954 26.8834 39.8437 26.9456 39.2905 26.9776C39.0233 26.9929 38.7526 26.9416 38.4834 26.9198C38.0316 26.883 37.5903 26.7828 37.2084 26.5411C36.9881 26.4021 36.8038 26.3867 36.569 26.4655Z" fill="#336791"/>
<path d="M1.61914 42.0057C2.1994 41.9116 2.78648 41.8659 3.37431 41.8691C4.27755 41.8691 4.93993 42.0792 5.36024 42.4575C5.74902 42.7937 5.98018 43.3086 5.98018 43.9395C5.98018 44.5804 5.79064 45.0848 5.43338 45.4526C4.95004 45.9674 4.16197 46.2301 3.26883 46.2301C2.99563 46.2301 2.74345 46.2196 2.5337 46.1671V49.0045H1.61914V42.0057ZM2.5337 45.4206C2.73335 45.4732 2.98553 45.4942 3.29025 45.4942C4.39314 45.4942 5.06602 44.9583 5.06602 43.9811C5.06602 43.0459 4.40405 42.5941 3.39532 42.5941C2.99603 42.5941 2.69132 42.6256 2.5337 42.6676V45.4206ZM11.5177 46.4188C11.5177 48.2997 10.2143 49.1197 8.98494 49.1197C7.60845 49.1197 6.54719 48.111 6.54719 46.5029C6.54719 44.8007 7.66099 43.8025 9.069 43.8025C10.53 43.8021 11.5177 44.8637 11.5177 46.4188ZM7.48276 46.4714C7.48276 47.5852 8.12372 48.4258 9.02737 48.4258C9.91001 48.4258 10.5716 47.5957 10.5716 46.4504C10.5716 45.5888 10.1412 44.496 9.04799 44.496C7.95479 44.496 7.48276 45.5047 7.48276 46.4714ZM12.5575 48.058C12.8307 48.2367 13.3141 48.4258 13.7764 48.4258C14.4489 48.4258 14.7641 48.0896 14.7641 47.6692C14.7641 47.2279 14.5018 46.9863 13.8184 46.7341C12.9043 46.4083 12.4734 45.904 12.4734 45.2945C12.4734 44.4749 13.1354 43.8025 14.2282 43.8025C14.7431 43.8025 15.1953 43.9496 15.479 44.1177L15.2478 44.7902C14.9351 44.5975 14.5749 44.4956 14.2076 44.496C13.6612 44.496 13.3565 44.8112 13.3565 45.1895C13.3565 45.6098 13.6616 45.7989 14.3236 46.0511C15.2062 46.3873 15.658 46.8286 15.658 47.5852C15.658 48.4783 14.9646 49.1088 13.7562 49.1088C13.1993 49.1088 12.6844 48.9722 12.3272 48.762L12.5575 48.058ZM17.9588 42.4571V43.9176H19.2823V44.6217H17.9588V47.3641C17.9588 47.9946 18.137 48.3518 18.6523 48.3518C18.8329 48.3544 19.0131 48.3332 19.1882 48.2888L19.2302 48.9823C19.052 49.0558 18.7679 49.1084 18.411 49.1084C17.9802 49.1084 17.6331 48.9718 17.4124 48.7196C17.1501 48.4464 17.0551 47.9946 17.0551 47.3956V44.6217H16.2671V43.9176H17.0551V42.6988L17.9588 42.4571ZM24.6416 43.918C24.6202 44.2858 24.5996 44.6956 24.5996 45.3156V48.2682C24.5996 49.4345 24.3684 50.149 23.8746 50.5908C23.3807 51.0531 22.6662 51.2002 22.0252 51.2002C21.4158 51.2002 20.7433 51.0531 20.3331 50.7799L20.5643 50.0759C20.9005 50.286 21.4259 50.4752 22.0563 50.4752C23.002 50.4752 23.6955 49.9813 23.6955 48.6994V48.132H23.6745C23.3908 48.6048 22.8444 48.9831 22.0563 48.9831C20.7954 48.9831 19.8918 47.9113 19.8918 46.5029C19.8918 44.7797 21.0161 43.8025 22.1824 43.8025C23.0655 43.8025 23.5488 44.2648 23.7695 44.6851H23.7905L23.8325 43.918H24.6416ZM23.6854 45.925C23.6854 45.7674 23.6749 45.6308 23.6329 45.5047C23.4648 44.9688 23.0129 44.5275 22.3405 44.5275C21.4574 44.5275 20.8274 45.2735 20.8274 46.4504C20.8274 47.4486 21.3317 48.2787 22.3299 48.2787C22.8974 48.2787 23.4122 47.9214 23.6119 47.333C23.6644 47.1754 23.6858 46.9968 23.6858 46.8391V45.925H23.6854ZM26.0702 45.5047C26.0702 44.9058 26.0597 44.3909 26.0282 43.918H26.8377L26.8688 44.9163H26.9108C27.142 44.2333 27.6989 43.8025 28.3188 43.8025C28.4239 43.8025 28.4971 43.813 28.5811 43.834V44.7061C28.4777 44.6836 28.3721 44.673 28.2663 44.6746C27.6148 44.6746 27.1521 45.1684 27.0264 45.8619C27.0005 46.0041 26.9864 46.1482 26.9844 46.2928V49.0037H26.0702V45.5047ZM29.9164 46.629C29.9374 47.8794 30.7356 48.3943 31.6603 48.3943C32.3226 48.3943 32.7215 48.2787 33.0683 48.1316L33.2259 48.7936C32.9001 48.9407 32.3432 49.1088 31.5342 49.1088C29.9685 49.1088 29.0334 48.079 29.0334 46.5449C29.0334 45.0108 29.937 43.8021 31.4186 43.8021C33.0788 43.8021 33.5201 45.2626 33.5201 46.1978C33.5201 46.3869 33.4991 46.534 33.4886 46.6286H29.9164V46.629ZM32.6274 45.967C32.6375 45.3786 32.3853 44.4644 31.3454 44.4644C30.4103 44.4644 30.0005 45.3261 29.9265 45.967H32.6274ZM34.5708 47.8899C35.0662 48.1875 35.6322 48.3471 36.21 48.3522C37.1452 48.3522 37.6916 47.8584 37.6916 47.1439C37.6916 46.4819 37.3133 46.1036 36.3571 45.7359C35.2013 45.3261 34.4868 44.7271 34.4868 43.7289C34.4868 42.6256 35.4009 41.806 36.7774 41.806C37.5025 41.806 38.0278 41.9741 38.3431 42.1528L38.0909 42.8988C37.6775 42.6766 37.2152 42.561 36.7459 42.5626C35.7792 42.5626 35.4114 43.1405 35.4114 43.6238C35.4114 44.2858 35.8419 44.6115 36.8195 44.9898C38.0173 45.4526 38.6268 46.0301 38.6268 47.0703C38.6268 48.1631 37.8177 49.1088 36.147 49.1088C35.464 49.1088 34.718 48.9091 34.3393 48.657L34.5708 47.8899ZM45.7194 50.044C44.8059 49.8042 43.9017 49.5309 43.0084 49.2244C42.8613 49.1718 42.7142 49.1193 42.5776 49.1193C40.8964 49.0562 39.4569 47.8164 39.4569 45.5362C39.4569 43.2666 40.8439 41.806 42.7562 41.806C44.6791 41.806 45.9299 43.2981 45.9299 45.3891C45.9299 47.2069 45.0893 48.3733 43.9125 48.7831V48.8251C44.6165 49.0037 45.3835 49.1718 45.9825 49.2769L45.7194 50.044ZM44.9628 45.4311C44.9628 44.0126 44.2277 42.5517 42.7247 42.5517C41.1801 42.5517 40.4236 43.9807 40.4341 45.5152C40.4236 47.0178 41.2537 48.3733 42.6827 48.3733C44.1436 48.3733 44.9628 47.0493 44.9628 45.4311ZM47.1165 41.9216H48.031V48.2367H51.0572V49.0037H47.1165V41.9216Z" fill="#336791"/>
</svg>
