<svg width="52" height="53" viewBox="0 0 52 53" fill="none" xmlns="http://www.w3.org/2000/svg">
<path fill-rule="evenodd" clip-rule="evenodd" d="M21.1959 9.60752C22.7139 9.60752 24.2318 9.63096 25.7477 9.59135C26.1499 9.58085 26.8712 9.91345 26.8389 9.07769C26.8143 8.39753 26.1834 8.64365 25.8011 8.63759C24.0888 8.61051 22.3708 8.54545 20.6653 8.65254C19.4517 8.72812 19.094 8.2674 19.2464 7.15441C19.2989 6.77048 19.2484 6.37281 19.2565 5.9816C19.3098 3.37654 19.9395 2.48986 22.4661 1.84728C25.2498 1.14004 28.0986 1.16348 30.8746 1.77292C33.3702 2.32093 34.4068 4.2624 34.2807 6.05839C34.1271 8.25002 34.2459 10.4607 34.2439 12.6632C34.2403 15.4327 32.8092 16.9026 30.017 16.941C27.7175 16.9725 25.4151 16.9976 23.1168 16.9337C20.3776 16.8569 18.3682 19.1322 18.3545 21.7106C18.3545 21.9062 18.388 22.1083 18.3492 22.297C18.152 23.2439 18.9401 24.7744 17.9362 25.0557C16.4085 25.4848 14.6198 25.4848 13.2724 24.1217C12.8158 23.661 12.431 23.1449 12.2281 22.5484C11.1455 19.3699 10.9745 16.1509 11.9937 12.9227C12.629 10.9076 14.3571 9.6544 16.4979 9.61843C18.0635 9.59216 19.6295 9.61318 21.1951 9.61318L21.1959 9.60752ZM23.9853 5.11352C23.9198 4.34444 23.5064 3.7831 22.6533 3.75966C21.7201 3.73541 21.238 4.29958 21.2368 5.21778C21.236 6.0689 21.6995 6.61408 22.5466 6.63873C23.4773 6.66581 23.9279 6.0891 23.9853 5.11352Z" fill="#386F9F"/>
<path fill-rule="evenodd" clip-rule="evenodd" d="M32.9119 25.1888C31.1984 25.1888 29.484 25.1739 27.7705 25.2009C27.3845 25.2058 26.7371 24.9617 26.7169 25.6217C26.6943 26.3701 27.389 26.1753 27.8303 26.1798C29.5438 26.2012 31.259 26.2194 32.9721 26.1717C33.8523 26.1474 34.2116 26.316 34.2775 27.3538C34.5753 32.0519 32.5365 32.458 28.776 33.3128C26.6187 33.803 24.3058 33.5431 22.1784 32.5902C20.4192 31.8033 19.3398 30.6693 19.476 28.546C19.6109 26.4501 19.6336 24.3272 19.4723 22.2334C19.2783 19.7063 20.8504 17.8477 23.9077 17.8469C25.9648 17.8465 28.0356 17.6897 30.0749 17.8772C32.9907 18.1447 35.2769 15.6172 35.3771 12.6784C35.3812 12.581 35.3561 12.4763 35.3812 12.3858C35.6382 11.4825 34.724 10.14 35.947 9.6837C37.7951 8.99465 39.8792 9.71886 40.8233 11.1212C42.0135 12.8869 42.1743 14.9646 42.3667 16.9933C42.5748 19.1801 41.9613 21.2388 41.0427 23.2114C40.4187 24.5491 39.3696 25.1957 37.9078 25.1977C36.2428 25.1989 34.5782 25.1977 32.9127 25.1977C32.9119 25.1945 32.9119 25.1916 32.9119 25.1888ZM32.4657 29.5535C32.2827 28.7186 31.906 28.1487 30.9361 28.1249C29.9273 28.1006 29.6671 28.8551 29.6723 29.5288C29.678 30.245 29.8776 31.126 30.9696 31.0436C31.8773 30.974 32.3198 30.4119 32.4657 29.5535Z" fill="#FFCF46"/>
<path fill-rule="evenodd" clip-rule="evenodd" d="M5.95797 46.7202C5.95797 47.7636 6.00525 48.7408 5.93574 49.7096C5.90584 50.1274 6.36655 50.9139 5.48998 50.9131C4.71727 50.9131 4.51884 50.298 4.54349 49.5548C4.59078 48.1362 4.55723 46.7149 4.55723 45.2952V42.0629C4.55723 40.1149 5.07978 39.4554 6.94285 39.0521C8.67498 38.6754 10.0361 39.2586 10.7361 40.7749C11.436 42.2916 11.4902 43.8544 10.7898 45.3974C10.0996 46.9178 8.82815 47.4852 7.19948 47.0346C6.82848 46.9335 6.45385 46.8458 5.95797 46.7202ZM5.95797 42.9019C5.95797 43.4394 6.03072 43.9874 5.94302 44.5103C5.74014 45.7191 6.51204 46.017 7.42216 46.232C8.32217 46.4445 8.93929 46.0618 9.30018 45.2689C9.90679 43.9393 10.0086 42.5681 9.54792 41.1621C9.13893 39.9125 8.19446 39.7662 7.09198 39.9214C6.00323 40.0761 5.85572 40.8165 5.9507 41.7319C5.99111 42.1178 5.95797 42.5119 5.95797 42.9019ZM17.6727 46.6555C16.9271 46.8495 16.2796 47.0564 15.6168 47.1809C14.166 47.452 13.0918 46.6555 12.7139 45.203C12.2451 43.4054 12.642 41.6147 12.6541 39.8211C12.6594 39.0036 13.4159 39.3224 13.9393 38.8843C13.9393 40.804 13.9465 42.461 13.9368 44.1167C13.9316 44.9484 14.1466 45.6322 14.933 46.0707C15.8011 46.5549 16.5132 46.0937 17.269 45.783C17.8105 45.5603 17.743 45.1056 17.7438 44.6732C17.7479 43.1084 17.7434 41.5452 17.7487 39.9804C17.7495 39.5944 17.7095 39.1228 18.2793 39.1418C18.7873 39.1583 19.0084 39.4602 18.9999 40.0139C18.9631 42.6032 19.0362 45.1962 18.9312 47.7818C18.8516 49.737 17.4722 50.9313 15.4879 51.019C15.1909 51.0315 14.8797 51.059 14.7686 50.6904C14.5992 50.123 15.0587 50.2301 15.3606 50.1335C17.5434 49.4392 17.8287 49.0245 17.6727 46.6555ZM26.8967 39.9367C27.4742 39.6639 27.806 39.4142 28.171 39.3467C30.2187 38.968 31.788 39.1123 31.7839 41.8705C31.7811 43.2911 31.7847 44.712 31.7811 46.1321C31.7803 46.5298 31.8058 46.917 31.2129 46.9513C30.5877 46.9885 30.4503 46.6308 30.4531 46.1406C30.4604 44.7718 30.4976 43.403 30.4964 42.0346C30.4955 40.9717 30.2785 40.0309 28.9267 40.0341C27.7409 40.0361 26.9012 40.9212 26.8951 42.1425C26.8883 43.4646 26.8887 44.7866 26.8963 46.1087C26.8975 46.5783 26.9076 46.9901 26.2287 46.9513C25.6172 46.9149 25.6924 46.5027 25.6924 46.1232C25.6883 42.6477 25.7053 39.1684 25.6758 35.6904C25.6706 35.081 25.911 34.7027 26.4518 34.6769C27.2148 34.6417 26.8652 35.3089 26.8765 35.6436C26.9262 37.0059 26.8967 38.3715 26.8967 39.9367ZM33.3589 43.053C33.2817 40.3392 34.5688 38.8904 36.8991 38.9745C38.0687 39.0173 38.946 39.5362 39.5122 40.5466C40.5125 42.3336 40.3771 44.1216 39.2948 45.7951C38.5512 46.9444 37.4075 47.4864 36.0132 47.1906C34.6384 46.8996 33.5617 45.6617 33.3669 44.219C33.3152 43.837 33.3589 43.4414 33.3589 43.053ZM38.742 43.1165C38.6805 42.6428 38.6914 41.9825 38.4942 41.3932C38.2247 40.5849 37.7332 39.9343 36.7306 39.8898C35.719 39.8462 35.2142 40.4374 34.8768 41.2558C34.347 42.5406 34.3813 43.8306 34.9552 45.0923C35.3238 45.905 35.8928 46.4999 36.8789 46.335C37.85 46.173 38.4231 45.5364 38.6215 44.592C38.7117 44.164 38.6971 43.7158 38.742 43.1169V43.1165ZM41.5737 43.4782C41.5737 42.9884 41.5645 42.4993 41.5754 42.012C41.598 41.0723 41.2985 40.0313 42.5655 39.5512C44.0163 39.0032 45.4543 38.5926 46.9148 39.4408C47.4612 39.7585 47.6625 40.3356 47.6681 40.9483C47.6831 42.6582 47.6604 44.3689 47.6835 46.0788C47.6916 46.6753 47.5348 46.9735 46.8643 46.9574C46.1296 46.94 46.2844 46.4389 46.2892 46.0388C46.3066 44.6728 46.4016 43.308 46.3757 41.9441C46.3418 40.2265 45.3993 39.5261 43.7937 39.9476C43.1277 40.123 42.7114 40.4463 42.7441 41.2708C42.8092 42.88 42.7591 44.495 42.7651 46.1071C42.7668 46.5743 42.7736 46.9881 42.0995 46.9489C41.482 46.9133 41.583 46.4862 41.5782 46.1156C41.5669 45.2362 41.575 44.3564 41.5737 43.4782ZM23.9663 39.6696C23.8653 39.7892 23.7804 39.9767 23.6915 39.9783C22.0895 40.0006 22.534 41.1964 22.4928 42.0835C22.4536 42.9099 22.4928 43.7405 22.4811 44.5693C22.469 45.393 22.5405 46.1584 23.5428 46.377C23.8301 46.4393 23.9611 46.605 23.9012 46.8919C23.8354 47.2088 23.5828 47.1962 23.3326 47.193C22.1808 47.1728 21.3269 46.3584 21.2929 45.1662C21.2582 43.9482 21.3055 42.7273 21.2768 41.5104C21.2618 40.9325 21.5621 40.195 20.6302 39.9658C20.5279 39.9412 20.4915 39.6514 20.4249 39.4861C21.668 39.0961 21.1523 38.0239 21.3229 37.2104C21.4037 36.8253 21.7694 36.7198 22.115 36.6871C22.4645 36.6539 22.4674 36.9368 22.4787 37.1732C22.5248 38.1108 22.0394 39.3657 23.7655 39.2974C23.8232 39.2954 23.8907 39.5245 23.9663 39.6692V39.6696Z" fill="#386F9F"/>
</svg>
