<svg width="52" height="53" viewBox="0 0 52 53" fill="none" xmlns="http://www.w3.org/2000/svg">
<path d="M25.8871 23.2605C27.9629 23.2605 29.6456 21.5778 29.6456 19.502C29.6456 17.4263 27.9629 15.7435 25.8871 15.7435C23.8114 15.7435 22.1287 17.4263 22.1287 19.502C22.1287 21.5778 23.8114 23.2605 25.8871 23.2605Z" fill="#61DAFB"/>
<path d="M25.8875 33.3235C28.8377 36.1928 31.7475 37.8902 34.0914 37.8902C34.8593 37.8902 35.5868 37.7286 36.193 37.3648C38.2945 36.1524 39.0623 33.1214 38.3349 28.7971C38.2136 28.0293 38.052 27.2614 37.8499 26.4531C38.6582 26.2107 39.3856 25.9682 40.1131 25.7257C44.1949 24.1496 46.458 21.9672 46.458 19.5828C46.458 17.158 44.1949 14.9757 40.1131 13.4399C39.3856 13.157 38.6582 12.9146 37.8499 12.7125C38.052 11.9042 38.2136 11.1364 38.3349 10.3685C39.0219 5.9634 38.2541 2.89196 36.1525 1.67955C35.5463 1.31583 34.8189 1.15417 34.051 1.15417C31.7474 1.15417 28.7973 2.85155 25.8471 5.72092C22.9373 2.85155 20.0275 1.15417 17.6835 1.15417C16.9156 1.15417 16.1882 1.31583 15.582 1.67955C13.4805 2.89196 12.7126 5.92299 13.44 10.2473C13.5613 11.0151 13.7229 11.783 13.925 12.5912C13.1167 12.8337 12.3893 13.0762 11.6618 13.3187C7.58006 14.8948 5.31689 17.0772 5.31689 19.4616C5.31689 21.8864 7.58006 24.0687 11.6618 25.6045C12.3893 25.8874 13.1167 26.1298 13.925 26.3319C13.7229 27.1402 13.5613 27.908 13.44 28.6759C12.753 33.0002 13.5209 36.0716 15.582 37.2436C16.1882 37.6073 16.9156 37.769 17.6835 37.769C20.0275 37.8498 22.9373 36.1524 25.8875 33.3235ZM23.6243 27.8676C24.3517 27.908 25.1196 27.908 25.8875 27.908C26.6553 27.908 27.4232 27.908 28.1506 27.8676C27.4232 28.8376 26.6553 29.7267 25.8875 30.5753C25.1196 29.7267 24.3517 28.8376 23.6243 27.8676ZM18.613 23.705C19.0171 24.392 19.3809 25.0387 19.8254 25.6853C18.5726 25.5236 17.4006 25.3216 16.269 25.0791C16.6327 23.9879 17.0369 22.8563 17.5218 21.7247C17.8451 22.3714 18.2089 23.0584 18.613 23.705ZM16.269 13.9653C17.4006 13.7228 18.5726 13.5208 19.8254 13.3591C19.4213 14.0057 19.0171 14.6523 18.613 15.3394C18.2089 16.0264 17.8451 16.673 17.5218 17.3601C16.9965 16.1881 16.5923 15.0565 16.269 13.9653ZM18.4918 19.502C19.0171 18.4108 19.5829 17.3197 20.2295 16.2285C20.8358 15.1777 21.5228 14.127 22.2098 13.0762C23.4222 12.9954 24.6346 12.955 25.8875 12.955C27.1807 12.955 28.3931 12.9954 29.5651 13.0762C30.2926 14.127 30.9392 15.1777 31.5454 16.2285C32.192 17.3197 32.7578 18.4108 33.2832 19.502C32.7578 20.5932 32.192 21.6843 31.5454 22.7755C30.9392 23.8263 30.2521 24.877 29.5651 25.9278C28.3527 26.0086 27.1403 26.049 25.8875 26.049C24.5942 26.049 23.3818 26.0086 22.2098 25.9278C21.4824 24.877 20.8358 23.8263 20.2295 22.7755C19.5829 21.6843 19.0171 20.5932 18.4918 19.502ZM34.2935 17.3197L33.2023 15.299C32.7982 14.6119 32.4345 13.9653 31.9899 13.3187C33.2428 13.4804 34.4148 13.6824 35.5463 13.9249C35.1826 15.0565 34.7785 16.1881 34.2935 17.3197ZM34.2935 21.6843C34.7785 22.8159 35.1826 23.9475 35.5463 25.0387C34.4148 25.2811 33.2428 25.4832 31.9899 25.6449C32.3941 24.9983 32.7982 24.3516 33.2023 23.6646C33.5661 23.0584 33.9298 22.3714 34.2935 21.6843ZM35.223 35.7079C34.8997 35.9099 34.4956 35.9908 34.051 35.9908C32.0708 35.9908 29.6055 34.3742 27.1807 31.9494C28.3527 30.6966 29.4843 29.2821 30.6159 27.706C32.5153 27.5443 34.3339 27.2614 36.0313 26.8573C36.2334 27.5847 36.3546 28.3122 36.4759 29.0396C37.0416 32.4748 36.5971 34.94 35.223 35.7079ZM37.3245 14.4099C41.8509 15.7031 44.5586 17.6834 44.5586 19.502C44.5586 21.0781 42.6996 22.6543 39.4261 23.9071C38.7794 24.1496 38.052 24.392 37.3245 24.5941C36.7992 22.9372 36.1525 21.2398 35.3443 19.502C36.1525 17.7642 36.8396 16.0668 37.3245 14.4099ZM34.0914 3.0132C34.536 3.0132 34.8997 3.09403 35.2634 3.2961C36.5971 4.06396 37.0821 6.48878 36.5163 9.96436C36.395 10.6514 36.2334 11.3788 36.0717 12.1467C34.3743 11.783 32.5557 11.5001 30.6563 11.298C29.5651 9.72188 28.3931 8.3074 27.2211 7.05457C29.6459 4.67017 32.1112 3.0132 34.0914 3.0132ZM28.1506 11.1364C27.4232 11.0959 26.6553 11.0959 25.8875 11.0959C25.1196 11.0959 24.3517 11.0959 23.6243 11.1364C24.3517 10.1664 25.1196 9.27733 25.8875 8.42864C26.6553 9.27733 27.4232 10.2068 28.1506 11.1364ZM16.5519 3.2961C16.8752 3.09403 17.2793 3.0132 17.7239 3.0132C19.7042 3.0132 22.1694 4.62975 24.5942 7.05457C23.4222 8.3074 22.2906 9.72188 21.1591 11.298C19.2596 11.4597 17.441 11.7426 15.7436 12.1467C15.5416 11.4193 15.4203 10.6918 15.2991 9.96436C14.7333 6.5292 15.1778 4.10437 16.5519 3.2961ZM14.4504 24.5941C9.92406 23.3009 7.21634 21.3206 7.21634 19.502C7.21634 17.9259 9.07537 16.3497 12.3489 15.0969C12.9955 14.8544 13.7229 14.6119 14.4504 14.4099C14.9758 16.0668 15.6224 17.7642 16.4307 19.502C15.6224 21.2398 14.9354 22.9776 14.4504 24.5941ZM15.2991 29.0396C15.4203 28.3526 15.582 27.6251 15.7436 26.8573C17.441 27.221 19.2596 27.5039 21.1591 27.706C22.2502 29.2821 23.4222 30.6966 24.5942 31.9494C22.1694 34.3338 19.7042 35.9908 17.7239 35.9908C17.2793 35.9908 16.9156 35.9099 16.5519 35.7079C15.1778 34.94 14.7333 32.4748 15.2991 29.0396ZM13.6017 45.6901C14.4908 44.5989 14.5312 43.3865 14.0463 42.1741C13.5613 40.9617 12.5509 40.3959 11.2981 40.3555C9.80281 40.315 8.26709 40.3555 6.77179 40.3555H6.48889V50.8226H7.7013V46.8621H9.60075C9.84323 46.8621 10.0453 46.9429 10.1665 47.145L12.5914 50.9034C12.6318 50.9843 12.753 51.1055 12.8338 51.1055H14.41C13.44 49.6102 12.5105 48.1957 11.5406 46.7408C12.3893 46.6196 13.1167 46.3367 13.6017 45.6901ZM7.7013 45.6092V41.6083H8.14585C9.07537 41.6083 10.0453 41.5679 10.9748 41.6487C12.066 41.6891 12.8338 42.5378 12.8338 43.629C12.8338 44.7201 11.9447 45.5688 10.8536 45.6092C9.88364 45.6496 8.91371 45.6092 7.7013 45.6092ZM23.3414 46.1346C22.6948 43.3057 20.1083 42.5782 18.128 43.4673C16.5923 44.1543 15.9053 45.488 15.8649 47.145C15.8245 48.3978 16.1882 49.5294 17.1581 50.3781C18.2493 51.348 19.5829 51.4692 20.957 51.2267C21.7249 51.0651 22.4119 50.7014 22.9373 50.1356C22.7352 49.8527 22.5331 49.5698 22.3311 49.3273C21.1995 50.2972 19.9467 50.6205 18.5726 49.9739C17.6835 49.5294 17.2389 48.4382 17.1581 47.6299H23.4222V47.1045C23.4626 46.7408 23.4222 46.4175 23.3414 46.1346ZM17.2389 46.7812C17.1177 45.5688 18.3301 44.2756 19.6638 44.2756C21.1995 44.2352 22.1694 45.1647 22.2098 46.7812H17.2389ZM29.6459 43.2652C29.0397 43.144 28.3931 43.1036 27.7869 43.144C26.817 43.2248 25.9683 43.6694 25.2813 44.3968C25.4833 44.6797 25.645 44.9626 25.8875 45.2859C25.9683 45.2051 26.0491 45.1243 26.1299 45.0839C26.7766 44.4777 27.5444 44.1543 28.4739 44.2352C29.2014 44.2756 29.8884 44.5181 30.0905 45.2455C30.2521 45.8113 30.2117 46.4175 30.2521 47.0237C30.1309 47.0237 30.0905 46.9833 30.0501 46.9429C29.0801 46.1346 27.989 45.973 26.817 46.2559C25.7258 46.5387 25.0388 47.3874 24.9579 48.4786C24.8771 49.7314 25.4429 50.6609 26.5341 51.1055C27.2211 51.3884 27.989 51.3884 28.7164 51.2267C29.2822 51.1055 29.5247 50.7822 30.333 50.3376V50.863H31.4646C31.4646 49.2465 31.505 47.2662 31.4646 45.4072C31.4646 44.2352 30.7775 43.5077 29.6459 43.2652ZM30.2117 48.3574C30.1713 48.4786 30.2117 48.5998 30.2117 48.7211C30.2117 49.5698 30.0097 49.8527 29.2014 50.176C28.6356 50.3781 28.0294 50.4589 27.4232 50.2568C26.7362 50.0547 26.2512 49.4485 26.2512 48.7615C26.2108 48.0745 26.6553 47.3874 27.3424 47.1854C28.2719 46.8621 29.1206 47.0641 29.8884 47.6299C30.1309 47.832 30.2926 48.0341 30.2117 48.3574ZM36.5163 44.3564C37.567 44.0331 38.5369 44.2352 39.2644 45.1243L39.3856 45.2051C39.6685 44.9626 39.911 44.7201 40.2343 44.4372C40.1131 44.316 40.0727 44.2352 39.9918 44.1139C38.8198 42.8611 36.5163 42.6994 35.1018 43.7098C33.1215 45.1647 33.1619 47.9936 34.1319 49.4889C35.0614 50.9034 36.395 51.3884 37.9712 51.1863C38.9007 51.0651 39.6685 50.6205 40.2747 49.8527C39.9918 49.6102 39.7089 49.3677 39.4261 49.0848C39.3452 49.1656 39.3048 49.2061 39.2644 49.2869C38.1732 50.4993 36.3546 50.378 35.3847 49.0848C34.8189 48.317 34.6976 47.4278 34.8593 46.5387C34.9401 45.5284 35.4655 44.7201 36.5163 44.3564ZM44.9223 49.8527C44.8415 49.8931 44.8011 49.9335 44.8011 49.9335C44.4778 50.176 44.1545 50.2164 43.7907 50.0952C43.427 49.9335 43.3866 49.6102 43.3462 49.2869V44.6797C43.3462 44.5989 43.3462 44.7605 43.3866 44.3564H44.9223V43.144H43.3058V41.1233H42.0934V43.3057H41.0426C40.9618 43.3057 40.8405 43.3865 40.8405 43.4673C40.8001 43.7502 40.8405 43.9523 40.8405 44.3564H42.1338V49.5294C42.1338 50.176 42.2954 50.7418 42.8612 51.0651C43.4674 51.4288 44.6394 51.348 45.1648 50.9034C45.2456 50.863 45.286 50.7014 45.286 50.6609C45.1648 50.4185 45.0436 50.1356 44.9223 49.8527Z" fill="#61DAFB"/>
</svg>
