<svg width="53" height="53" viewBox="0 0 53 53" fill="none" xmlns="http://www.w3.org/2000/svg">
<path d="M2.27428 18.5089C2.27428 18.5089 1.05096 17.6234 2.52081 16.4425L5.94304 13.3735C5.94304 13.3735 6.92347 12.3393 7.95928 13.241L39.5527 37.2176V48.7153C39.5527 48.7153 39.5369 50.521 37.2261 50.3222L2.27428 18.5089Z" fill="#2489CA"/>
<path d="M10.419 25.9192L2.27439 33.3404C2.27439 33.3404 1.43783 33.9639 2.27439 35.0802L6.0555 38.5262C6.0555 38.5262 6.95349 39.4941 8.28149 38.3937L16.9134 31.8313L10.419 25.9192Z" fill="#1070B3"/>
<path d="M24.7154 25.9808L39.6495 14.5498L39.5529 3.11389C39.5529 3.11389 38.9152 0.617943 36.7874 1.91805L16.9136 20.048L24.7154 25.9808Z" fill="#0877B9"/>
<path d="M37.2258 50.3363C38.0927 51.2266 39.1443 50.9344 39.1443 50.9344L50.7822 45.1868C52.2723 44.1683 52.0637 42.9054 52.0637 42.9054V8.57599C52.0637 7.06654 50.5232 6.54561 50.5232 6.54561L40.4355 1.67132C38.2317 0.305736 36.7874 1.91784 36.7874 1.91784C36.7874 1.91784 38.6436 0.577316 39.5529 3.11408V48.5055C39.5529 48.8179 39.4866 49.1239 39.354 49.4003C39.0889 49.9386 38.511 50.4389 37.1297 50.2292L37.2258 50.3363Z" fill="#3C99D4"/>
</svg>
